<svg xmlns="http://www.w3.org/2000/svg" viewBox="0 0 600 360" width="100%" height="100%">
  <defs>
    <linearGradient id="bg3" x1="0%" y1="0%" x2="100%" y2="100%">
      <stop offset="0%" stop-color="#064E3B" />
      <stop offset="100%" stop-color="#0F172A" />
    </linearGradient>
    <linearGradient id="card3" x1="0%" y1="0%" x2="100%" y2="100%">
      <stop offset="0%" stop-color="#34D399" />
      <stop offset="100%" stop-color="#4F46E5" />
    </linearGradient>
  </defs>
  <rect width="600" height="360" rx="20" fill="url(#bg3)" />
  <circle cx="480" cy="80" r="130" fill="#34D399" opacity="0.2" filter="blur(30px)" />
  <circle cx="120" cy="280" r="140" fill="#4F46E5" opacity="0.2" filter="blur(30px)" />
  
  <!-- Hostel App Window -->
  <rect x="60" y="50" width="480" height="260" rx="16" fill="#061E1A" stroke="#10B981" stroke-width="2" opacity="0.95" />
  <rect x="60" y="50" width="480" height="42" rx="16" fill="#042F2E" />
  <circle cx="85" cy="71" r="6" fill="#EF4444" />
  <circle cx="105" cy="71" r="6" fill="#F59E0B" />
  <circle cx="125" cy="71" r="6" fill="#10B981" />
  <text x="300" y="76" font-family="sans-serif" font-size="13" font-weight="600" fill="#A7F3D0" text-anchor="middle">Hostel Management — Admin &amp; Student Portals</text>

  <!-- Left Building Mockup Card -->
  <rect x="85" y="110" width="190" height="180" rx="12" fill="url(#card3)" />
  <rect x="135" y="140" width="90" height="110" rx="8" fill="#FFFFFF" opacity="0.95" />
  <rect x="148" y="155" width="18" height="18" rx="4" fill="#4F46E5" />
  <rect x="178" y="155" width="18" height="18" rx="4" fill="#4F46E5" />
  <rect x="148" y="182" width="18" height="18" rx="4" fill="#4F46E5" />
  <rect x="178" y="182" width="18" height="18" rx="4" fill="#4F46E5" />
  <rect x="165" y="215" width="30" height="35" rx="4" fill="#10B981" />
  <text x="180" y="275" font-family="sans-serif" font-size="12" font-weight="800" fill="#FFFFFF" text-anchor="middle">Block A — Occupied</text>

  <!-- Right Attendance & Fee Tracker -->
  <rect x="295" y="110" width="220" height="85" rx="12" fill="#042F2E" stroke="#059669" stroke-width="1" />
  <text x="315" y="135" font-family="sans-serif" font-size="13" font-weight="700" fill="#A7F3D0">Daily Student Attendance</text>
  <rect x="315" y="150" width="130" height="10" rx="5" fill="#064E3B" />
  <rect x="315" y="150" width="115" height="10" rx="5" fill="#34D399" />
  <text x="475" y="159" font-family="sans-serif" font-size="13" font-weight="800" fill="#34D399">94%</text>
  <text x="315" y="178" font-family="sans-serif" font-size="11" fill="#6EE7B7">Automated Node-Cron Alerts On</text>

  <rect x="295" y="205" width="220" height="85" rx="12" fill="#042F2E" stroke="#059669" stroke-width="1" />
  <text x="315" y="230" font-family="sans-serif" font-size="13" font-weight="700" fill="#A7F3D0">Fee Payment Status</text>
  <circle cx="330" cy="260" r="14" fill="#10B981" />
  <path d="M 324 260 L 329 265 L 337 256" fill="none" stroke="#FFFFFF" stroke-width="2.5" stroke-linecap="round" />
  <text x="355" y="265" font-family="sans-serif" font-size="12" font-weight="600" fill="#FFFFFF">Semester 2 Fees Cleared</text>
</svg>
