<svg xmlns="http://www.w3.org/2000/svg" viewBox="0 0 600 360" width="100%" height="100%">
  <defs>
    <linearGradient id="bg6" x1="0%" y1="0%" x2="100%" y2="100%">
      <stop offset="0%" stop-color="#1E1B4B" />
      <stop offset="100%" stop-color="#065F46" />
    </linearGradient>
    <linearGradient id="card6" x1="0%" y1="0%" x2="100%" y2="100%">
      <stop offset="0%" stop-color="#4F46E5" />
      <stop offset="100%" stop-color="#34D399" />
    </linearGradient>
  </defs>
  <rect width="600" height="360" rx="20" fill="url(#bg6)" />
  <circle cx="300" cy="180" r="160" fill="#34D399" opacity="0.25" filter="blur(30px)" />
  
  <rect x="60" y="50" width="480" height="260" rx="16" fill="#0F172A" stroke="#4F46E5" stroke-width="2" />
  <rect x="60" y="50" width="480" height="42" rx="16" fill="#1E293B" />
  <circle cx="85" cy="71" r="6" fill="#EF4444" />
  <circle cx="105" cy="71" r="6" fill="#FBBF24" />
  <circle cx="125" cy="71" r="6" fill="#10B981" />
  <text x="300" y="76" font-family="sans-serif" font-size="13" font-weight="600" fill="#E2E8F0" text-anchor="middle">harini.dev — Modern Glassmorphic Portfolio (React + Vite)</text>

  <!-- Laptop Screen -->
  <rect x="90" y="115" width="280" height="170" rx="10" fill="#1E293B" />
  <rect x="105" y="130" width="80" height="15" rx="4" fill="url(#card6)" />
  <rect x="105" y="155" width="140" height="8" rx="4" fill="#64748B" />
  <rect x="105" y="170" width="100" height="8" rx="4" fill="#64748B" />
  <rect x="105" y="195" width="60" height="22" rx="11" fill="url(#card6)" />
  <circle cx="305" cy="170" r="40" fill="url(#card6)" opacity="0.3" />
  <circle cx="305" cy="170" r="24" fill="url(#card6)" />

  <!-- Mobile Screen Overlay -->
  <rect x="395" y="125" width="115" height="160" rx="14" fill="#0F172A" stroke="#4F46E5" stroke-width="3" />
  <rect x="435" y="130" width="35" height="4" rx="2" fill="#334155" />
  <rect x="410" y="145" width="50" height="8" rx="4" fill="url(#card6)" />
  <rect x="410" y="160" width="85" height="50" rx="8" fill="#1E293B" />
  <rect x="410" y="220" width="85" height="50" rx="8" fill="#1E293B" />
</svg>
