<svg xmlns="http://www.w3.org/2000/svg" viewBox="0 0 360 380" width="100%">
  <circle cx="180" cy="180" r="170" fill="#F6F5FD"/>
  <ellipse cx="180" cy="330" rx="120" ry="14" fill="#EFEBFC"/>
  <rect x="90" y="230" width="180" height="14" rx="7" fill="#4F46E5" opacity="0.15"/>
  <rect x="140" y="150" width="80" height="100" rx="26" fill="#4F46E5"/>
  <circle cx="180" cy="110" r="42" fill="#F4C7A1"/>
  <path d="M138 100 q42 -55 84 0 q4 -46 -42 -50 q-46 4 -42 50 Z" fill="#2D2250"/>
  <rect x="150" y="200" width="60" height="46" rx="10" fill="#312C85"/>
  <rect x="130" y="222" width="100" height="8" rx="3" fill="#E7E3F7"/>
  <rect x="150" y="196" width="60" height="30" rx="4" fill="#7C3AED"/>
  <rect x="155" y="200" width="50" height="20" rx="2" fill="#EFEBFC"/>
  <rect x="118" y="205" width="34" height="12" rx="6" fill="#4F46E5"/>
  <rect x="208" y="205" width="34" height="12" rx="6" fill="#4F46E5"/>
  <rect x="60" y="230" width="26" height="30" rx="4" fill="#FB7185"/>
  <circle cx="73" cy="215" r="16" fill="#34D399"/>
  <circle cx="60" cy="205" r="12" fill="#34D399"/>
  <circle cx="86" cy="205" r="12" fill="#34D399"/>
  <circle cx="290" cy="90" r="26" fill="#FEF3C7"/>
  <text x="290" y="97" font-size="20" text-anchor="middle" font-family="monospace" fill="#F59E0B">&lt;/&gt;</text>
  <circle cx="60" cy="120" r="22" fill="#DCFCE7"/>
  <text x="60" y="127" font-size="16" text-anchor="middle" font-family="monospace" fill="#16A34A">AI</text>
</svg>
